<svg xmlns="http://www.w3.org/2000/svg" viewBox="0 0 64 64">
  <defs><linearGradient id="g" x1="9" y1="7" x2="55" y2="58"><stop stop-color="#ffc0ad"/><stop offset=".55" stop-color="#ff8b70"/><stop offset="1" stop-color="#b986e9"/></linearGradient></defs>
  <rect x="3" y="3" width="58" height="58" rx="17" fill="url(#g)"/>
  <g fill="none" stroke="#3d2027" stroke-opacity=".35" stroke-width="2"><ellipse cx="32" cy="32" rx="22" ry="9" transform="rotate(34 32 32)"/><ellipse cx="32" cy="32" rx="9" ry="22" transform="rotate(34 32 32)"/></g>
  <path fill="#24151c" d="M32 17c1.3 7.4 4.2 10.8 11.6 12.1C36.2 30.4 33.3 33.8 32 41.2c-1.3-7.4-4.2-10.8-11.6-12.1C27.8 27.8 30.7 24.4 32 17Z"/>
  <path fill="#24151c" d="M43.5 36c.6 3.7 2.1 5.4 5.8 6-3.7.7-5.2 2.4-5.8 6.1-.7-3.7-2.2-5.4-5.9-6 3.7-.7 5.2-2.4 5.9-6.1Z"/>
</svg>
